<svg xmlns="http://www.w3.org/2000/svg" viewBox="0 0 132.35 132.35"><defs><style>.cls-1{fill:#fff;}.cls-2{fill:#25b99a;fill-rule:evenodd;}</style></defs><g id="Layer_2" data-name="Layer 2"><g id="Page_1" data-name="Page 1"><g id="Layer_1-2" data-name="Layer 1"><path class="cls-1" d="M132.35,0H0V132.35H132.35V0Z"/><path class="cls-2" d="M108.54,44.11v6.21h-3.93V106.4h6.7v7.39H21V106.4h6.69V50.32H23.81V44.11L66.17,18.55l42.37,25.56Zm-68.8,5.06H52.62V60.6H39.74V49.17Zm20,0H72.62V60.6H59.73V49.17Zm20,0H92.61V60.6H79.72V49.17ZM39.74,67H52.62V78.45H39.74V67Zm20,0H72.62V78.45H59.73V67Zm20,0H92.61V78.45H79.72V67Zm-40,17.85H52.62V106.4H98.84V47.6L66.17,27.89,33.5,47.6v58.8h6.24V84.86Zm20,0H72.62V96.29H59.73V84.86Zm20,0H92.61V96.29H79.72V84.86Z"/></g></g></g></svg>