<svg xmlns="http://www.w3.org/2000/svg" viewBox="0 0 132.35 132.35"><defs><style>.cls-1{fill:#fff;}.cls-2{fill:#25b99a;fill-rule:evenodd;}</style></defs><g id="Layer_2" data-name="Layer 2"><g id="Page_1" data-name="Page 1"><g id="Layer_1-2" data-name="Layer 1"><path class="cls-1" d="M132.35,0H0V132.35H132.35V0Z"/><path class="cls-2" d="M106.36,35.5H50.66V29h.7V25.66H40.7V29h.67V39.18H39.74V35.5H26L22.84,54.77v4.16h3.78v42.9H20.23v4.85h91.89v-4.85h-6.4V58.93h3.79V54.77L106.36,35.5ZM72.48,101.83V81.9H59.86v19.93H31.44V58.93H100.9v42.9Zm9.43-7.89H94.53v-12H81.91v12Zm-43.81,0H50.71v-12H38.1v12ZM81.91,74.83H94.53v-12H81.91v12Zm-22,0H72.48v-12H59.86v12Zm-21.76,0H50.71v-12H38.1v12Z"/></g></g></g></svg>